<?xml version="1.0" encoding="utf-8"?>
<!-- Generator: Adobe Illustrator 24.1.0, SVG Export Plug-In . SVG Version: 6.00 Build 0)  -->
<svg version="1.1" id="Capa_1" xmlns="http://www.w3.org/2000/svg" xmlns:xlink="http://www.w3.org/1999/xlink" x="0px" y="0px"
	 viewBox="0 0 512 358.4" style="enable-background:new 0 0 512 358.4;" xml:space="preserve">
<style type="text/css">
	.st0{fill:#21B5E7;}
	.st1{fill:#333E48;}
</style>
<path class="st0" d="M62,99.2v169.2h148V99.2H62z M103.3,259.7l14-8c3.4-2.1,5.4-5.8,5.4-9.8v-9.2c0-2.3-0.7-4.8-2.2-6.8
	c-3.2-3.9-5.5-8.4-6.8-13.3c-0.8-3.9-2.7-7.5-5.6-10.2c-0.5-0.4-0.8-1-0.8-1.7v-10.5c0-0.4,0.1-0.8,0.1-0.8l0.9-1.6
	c1.4-2.7,2.1-5.7,2.1-8.8v-15.1c0.4-8.7,7.6-15.4,16.3-15.1h18.6c8.7-0.3,15.9,6.4,16.3,15.1V179c0,3.2,0.8,6.4,2.3,9.2l0.4,0.8
	c0.2,0.4,0.3,0.8,0.3,1.2v10.5c0,0.6-0.3,1.2-0.7,1.6c-2.9,2.7-4.8,6.2-5.6,10.1c-1.3,5.1-3.8,9.9-7.1,13.9
	c-1.3,1.9-1.9,4.1-1.9,6.4v9.2c0,4.1,2.2,7.9,5.8,10l13.7,7.8H103.3z"/>
<path class="st1" d="M468.8,0.3H42.2C18.6,0.3-0.5,19.4-0.5,43v273c0,23.6,19.1,42.6,42.7,42.7h426.7c23.6,0,42.6-19.1,42.7-42.7V43
	C511.5,19.4,492.4,0.3,468.8,0.3z M494.4,316c0,14.1-11.5,25.6-25.6,25.6H42.2c-14.1,0-25.6-11.5-25.6-25.6V43
	c0-14.1,11.5-25.6,25.6-25.6h426.7c14.1,0,25.6,11.5,25.6,25.6v273H494.4z"/>
<g>
	<path class="st1" d="M174.5,48H97.7c-4.7,0-8.5,3.8-8.5,8.5S93,65,97.7,65h76.8c4.7,0,8.5-3.8,8.5-8.5S179.2,48,174.5,48z"/>
	<path class="st1" d="M204.3,89.1H67.7c-9.4,0-17.1,7.6-17.1,17.1v153.6c0,9.4,7.6,17.1,17.1,17.1h136.5c9.4,0,17.1-7.6,17.1-17.1
		V106.1C221.3,96.7,213.7,89.1,204.3,89.1z M120.5,225.9c-3.2-3.9-5.5-8.4-6.8-13.3c-0.8-3.9-2.7-7.5-5.6-10.2
		c-0.5-0.4-0.8-1-0.8-1.7v-10.5c0-0.4,0.1-0.8,0.1-0.8l0.9-1.6c1.4-2.7,2.1-5.7,2.1-8.8v-15.1c0.4-8.7,7.6-15.4,16.3-15.1h18.6
		c8.7-0.3,15.9,6.4,16.3,15.1V179c0,3.2,0.8,6.4,2.3,9.2l0.4,0.8c0.2,0.4,0.3,0.8,0.3,1.2v10.5c0,0.6-0.3,1.2-0.7,1.6
		c-2.9,2.7-4.8,6.2-5.6,10.1c-1.3,5.1-3.8,9.9-7.1,13.9c-1.3,1.9-1.9,4.1-1.9,6.4v9.2c0,4.1,2.2,7.9,5.8,10l13.7,7.8h-65.5l14-8
		c3.4-2.1,5.4-5.8,5.4-9.8v-9.2C122.7,230.4,122,227.9,120.5,225.9z M204.2,259.7h-2.1c-1.3-1.1-2.8-2.1-4.3-3l-31.6-18v-4.1
		c4.1-5.6,7.1-11.9,8.7-18.6c0.1-0.5,0.4-0.9,0.7-1.2c3.8-3.6,6-8.7,6-14v-10.5c0-3.2-0.8-6.4-2.3-9.3l-0.4-0.8
		c-0.2-0.4-0.3-0.7-0.3-1.1V164c-0.4-18.1-15.3-32.5-33.4-32.2h-18.6c-18.1-0.3-33,14.1-33.4,32.2v15.1c0,0.3-0.1,0.7-0.1,0.7
		l-0.9,1.6c-1.4,2.7-2.1,5.8-2.1,8.8v10.5c0,5.3,2.2,10.4,6.1,14.1c0.4,0.4,0.6,0.8,0.7,1.3c1.6,6.7,4.5,13,8.7,18.5v4.2l-31.6,18
		c-1.5,0.9-2.9,1.9-4.3,3h-2.1c0.1,0,0.1-153.7,0.1-153.7h136.5V259.7z"/>
	<g>
		<g>
			<path class="st1" d="M272.6,140.3h119.5c4.7,0,8.5-3.8,8.5-8.5c0-4.7-3.8-8.5-8.5-8.5H272.6c-4.7,0-8.5,3.8-8.5,8.5
				C264.1,136.5,267.9,140.3,272.6,140.3z"/>
			<path class="st1" d="M451.8,123.3h-25.6c-4.7,0-8.5,3.8-8.5,8.5c0,4.7,3.8,8.5,8.5,8.5h25.6c4.7,0,8.5-3.8,8.5-8.5
				C460.4,127.1,456.5,123.3,451.8,123.3z"/>
		</g>
		<path class="st1" d="M272.6,276.9h119.5c4.7,0,8.5-3.8,8.5-8.5s-3.8-8.5-8.5-8.5H272.6c-4.7,0-8.5,3.8-8.5,8.5
			C264.1,273,267.9,276.9,272.6,276.9z"/>
		<path class="st1" d="M272.6,311h179.2c4.7,0,8.5-3.8,8.5-8.5s-3.8-8.5-8.5-8.5H272.6c-4.7,0-8.5,3.8-8.5,8.5S267.9,311,272.6,311z
			"/>
		<path class="st1" d="M451.8,259.8h-25.6c-4.7,0-8.5,3.8-8.5,8.5s3.8,8.5,8.5,8.5h25.6c4.7,0,8.5-3.8,8.5-8.5
			C460.4,263.6,456.5,259.8,451.8,259.8z"/>
		<path class="st1" d="M451.8,191.5h-68.3c-4.7,0-8.5,3.8-8.5,8.5s3.8,8.5,8.5,8.5h68.3c4.7,0,8.5-3.8,8.5-8.5
			C460.4,195.3,456.5,191.5,451.8,191.5z"/>
		<path class="st1" d="M451.8,157.4H332.4c-4.7,0-8.5,3.8-8.5,8.5s3.8,8.5,8.5,8.5h119.5c4.7,0,8.5-3.8,8.5-8.5
			S456.5,157.4,451.8,157.4z"/>
		<path class="st1" d="M272.6,174.4h25.6c4.7,0,8.5-3.8,8.5-8.5s-3.8-8.5-8.5-8.5h-25.6c-4.7,0-8.5,3.8-8.5,8.5
			S267.9,174.4,272.6,174.4z"/>
		<path class="st1" d="M451.8,225.7H332.4c-4.7,0-8.5,3.8-8.5,8.5s3.8,8.5,8.5,8.5h119.5c4.7,0,8.5-3.8,8.5-8.5
			S456.5,225.7,451.8,225.7z"/>
		<path class="st1" d="M272.6,242.7h25.6c4.7,0,8.5-3.8,8.5-8.5s-3.8-8.5-8.5-8.5h-25.6c-4.7,0-8.5,3.8-8.5,8.5
			S267.9,242.7,272.6,242.7z"/>
		<path class="st1" d="M349.4,191.5h-76.8c-4.7,0-8.5,3.8-8.5,8.5s3.8,8.5,8.5,8.5h76.8c4.7,0,8.5-3.8,8.5-8.5
			S354.1,191.5,349.4,191.5z"/>
	</g>
	<path class="st1" d="M421.9,48H302.4c-4.7,0-8.5,3.8-8.5,8.5s3.8,8.5,8.5,8.5h119.5c4.7,0,8.5-3.8,8.5-8.5S426.6,48,421.9,48z"/>
	<path class="st1" d="M400.6,82.2h-76.8c-4.7,0-8.5,3.8-8.5,8.5s3.8,8.5,8.5,8.5h76.8c4.7,0,8.5-3.8,8.5-8.5S405.3,82.2,400.6,82.2z
		"/>
</g>
</svg>
