<?xml version="1.0" encoding="utf-8"?>
<!-- Generator: Adobe Illustrator 24.1.0, SVG Export Plug-In . SVG Version: 6.00 Build 0)  -->
<svg version="1.1" id="Layer_1" xmlns="http://www.w3.org/2000/svg" xmlns:xlink="http://www.w3.org/1999/xlink" x="0px" y="0px"
	 viewBox="0 0 512 512" style="enable-background:new 0 0 512 512;" xml:space="preserve">
<style type="text/css">
	.st0{fill:#02A9F4;}
	.st1{fill:#0377BC;}
	.st2{fill:#FFFFFF;}
	.st3{fill:#EE3F36;}
	.st4{fill:#333E48;}
</style>
<g id="Page-1">
	<g id="_x30_05---Modem">
		<path id="Rectangle-path" class="st0" d="M42.7,213.3H384c18.9,0,34.1,15.3,34.1,34.1v221.9c0,18.9-15.3,34.1-34.1,34.1H42.7
			c-18.9,0-34.1-15.3-34.1-34.1V247.5C8.5,228.6,23.8,213.3,42.7,213.3z"/>
		<path id="Shape" class="st1" d="M384,213.3h-25.6c18.9,0,34.1,15.3,34.1,34.1v221.9c0,18.9-15.3,34.1-34.1,34.1H384
			c18.9,0,34.1-15.3,34.1-34.1V247.5C418.1,228.6,402.9,213.3,384,213.3z"/>
		<path id="Rectangle-path_1_" class="st2" d="M102.4,435.2h17.1c4.7,0,8.5,3.8,8.5,8.5v17.1c0,4.7-3.8,8.5-8.5,8.5h-17.1
			c-4.7,0-8.5-3.8-8.5-8.5v-17.1C93.9,439,97.7,435.2,102.4,435.2z"/>
		<path id="Rectangle-path_2_" class="st2" d="M170.7,435.2h17.1c4.7,0,8.5,3.8,8.5,8.5v17.1c0,4.7-3.8,8.5-8.5,8.5h-17.1
			c-4.7,0-8.5-3.8-8.5-8.5v-17.1C162.1,439,166,435.2,170.7,435.2z"/>
		<path id="Rectangle-path_3_" class="st2" d="M238.9,435.2H256c4.7,0,8.5,3.8,8.5,8.5v17.1c0,4.7-3.8,8.5-8.5,8.5h-17.1
			c-4.7,0-8.5-3.8-8.5-8.5v-17.1C230.4,439,234.2,435.2,238.9,435.2z"/>
		<path id="Rectangle-path_4_" class="st2" d="M307.2,435.2h17.1c4.7,0,8.5,3.8,8.5,8.5v17.1c0,4.7-3.8,8.5-8.5,8.5h-17.1
			c-4.7,0-8.5-3.8-8.5-8.5v-17.1C298.7,439,302.5,435.2,307.2,435.2z"/>
		<path id="Shape_1_" class="st2" d="M503.5,315.5c0.1,2.3-0.8,4.6-2.4,6.2c-1.6,1.7-3.9,2.6-6.2,2.6h-34c-2.3,0-4.6-0.9-6.2-2.6
			s-2.5-3.9-2.4-6.2l0.3-8.3l1.4-51.2l6.3-230.8c0.3-9.3,7.9-16.7,17.2-16.6h0.9c9.3-0.1,17,7.3,17.2,16.6L503.5,315.5z"/>
		<path id="Shape_4_" class="st3" d="M339.5,107.1c-2.6,0-5-1.2-6.7-3.2C303.7,67,259.4,45.6,212.4,45.6S121.2,67,92.1,103.9
			c-2.9,3.7-8.3,4.3-12,1.4s-4.3-8.3-1.4-12c32.3-40.9,81.6-64.8,133.7-64.8s101.4,23.9,133.7,64.8c2,2.6,2.4,6.1,1,9
			C345.7,105.2,342.8,107.1,339.5,107.1L339.5,107.1z"/>
		<path id="Shape_5_" class="st3" d="M299.4,138.8c-2.6,0-5.1-1.2-6.7-3.2c-19.4-24.5-49-38.8-80.3-38.8s-60.9,14.3-80.3,38.8
			c-2.9,3.7-8.3,4.3-12,1.3s-4.3-8.3-1.4-12c22.7-28.6,57.1-45.3,93.6-45.3s71,16.7,93.6,45.3c2,2.6,2.4,6.1,1,9
			C305.6,137,302.6,138.8,299.4,138.8L299.4,138.8z"/>
		<path id="Shape_6_" class="st3" d="M259.2,170.7c-2.6,0-5.1-1.2-6.7-3.3c-9.7-12.3-24.4-19.4-40-19.4s-30.4,7.2-40,19.4
			c-1.9,2.4-4.9,3.6-7.9,3.2c-3-0.4-5.6-2.4-6.7-5.3c-1.1-2.8-0.7-6,1.2-8.4c12.9-16.4,32.6-26,53.5-26s40.6,9.6,53.5,26
			c2,2.6,2.4,6.1,1,9C265.4,168.8,262.4,170.7,259.2,170.7L259.2,170.7z"/>
		<g>
			<path id="Shape_7_" class="st4" d="M119.5,426.7h-17.1c-9.4,0-17.1,7.6-17.1,17.1v17.1c0,9.4,7.6,17.1,17.1,17.1h17.1
				c9.4,0,17.1-7.6,17.1-17.1v-17.1C136.5,434.3,128.9,426.7,119.5,426.7z M102.4,460.8v-17.1h17.1v17.1H102.4z"/>
			<path id="Shape_8_" class="st4" d="M187.7,426.7h-17.1c-9.4,0-17.1,7.6-17.1,17.1v17.1c0,9.4,7.6,17.1,17.1,17.1h17.1
				c9.4,0,17.1-7.6,17.1-17.1v-17.1C204.8,434.3,197.2,426.7,187.7,426.7z M170.7,460.8v-17.1h17.1v17.1H170.7z"/>
			<path id="Shape_9_" class="st4" d="M256,426.7h-17.1c-9.4,0-17.1,7.6-17.1,17.1v17.1c0,9.4,7.6,17.1,17.1,17.1H256
				c9.4,0,17.1-7.6,17.1-17.1v-17.1C273.1,434.3,265.4,426.7,256,426.7z M238.9,460.8v-17.1H256v17.1H238.9z"/>
			<path id="Shape_10_" class="st4" d="M324.3,426.7h-17.1c-9.4,0-17.1,7.6-17.1,17.1v17.1c0,9.4,7.6,17.1,17.1,17.1h17.1
				c9.4,0,17.1-7.6,17.1-17.1v-17.1C341.3,434.3,333.7,426.7,324.3,426.7z M307.2,460.8v-17.1h17.1v17.1H307.2z"/>
			<path id="Shape_11_" class="st4" d="M187.7,256h51.2c4.7,0,8.5-3.8,8.5-8.5s-3.8-8.5-8.5-8.5h-51.2c-4.7,0-8.5,3.8-8.5,8.5
				S183,256,187.7,256z"/>
			<path id="Shape_12_" class="st4" d="M230.4,273.1c0-4.7-3.8-8.5-8.5-8.5h-17.1c-4.7,0-8.5,3.8-8.5,8.5s3.8,8.5,8.5,8.5h17.1
				C226.6,281.6,230.4,277.8,230.4,273.1z"/>
			<path id="Shape_13_" class="st4" d="M478.3,0h-0.9c-13.9-0.1-25.4,11-25.7,24.9l-6.1,222.6h-18.9c0-23.6-19.1-42.6-42.7-42.7
				H42.7C19.1,204.8,0,223.9,0,247.5v221.9C0,492.9,19.1,512,42.7,512H384c23.6,0,42.6-19.1,42.7-42.7V315.7h17.1
				c0,4.5,1.8,8.9,5,12.1c3.2,3.2,7.6,5,12.1,5h34c4.6,0,9.1-1.8,12.3-5.1c3.2-3.3,5-7.8,4.9-12.4l-7.9-290.4
				C503.7,11,492.3-0.1,478.3,0L478.3,0z M409.6,469.3c0,14.1-11.5,25.6-25.6,25.6H42.7c-14.1,0-25.6-11.5-25.6-25.6V247.5
				c0-14.1,11.5-25.6,25.6-25.6H384c14.1,0,25.6,11.5,25.6,25.6V469.3z M426.7,264.5h18.4l-0.9,34.1h-17.5L426.7,264.5z
				 M460.8,315.7l0.2-8.4c0-0.1,0-0.1,0-0.1v-0.1l7.7-281.7c0.1-4.7,4-8.4,8.7-8.3h0.9c4.7-0.1,8.6,3.6,8.7,8.3l7.9,290.4H460.8z"/>
		</g>
	</g>
</g>
</svg>
